<svg width="29" height="29" viewBox="0 0 29 29" fill="none" xmlns="http://www.w3.org/2000/svg">
<path d="M24.1172 28.9324H4.14844C3.04855 28.9313 1.99402 28.4938 1.21628 27.7161C0.438542 26.9383 0.00111683 25.8838 0 24.7839V14.5886C0.00111683 13.4887 0.438542 12.4342 1.21628 11.6565C1.99402 10.8787 3.04855 10.4413 4.14844 10.4402H11.1698C11.7106 10.4402 12.2293 10.2254 12.6117 9.84296C12.9941 9.46056 13.2089 8.94192 13.2089 8.40112C13.21 7.30123 13.6474 6.24671 14.4252 5.46897C15.2029 4.69123 16.2575 4.2538 17.3573 4.25269H24.1172C25.2171 4.2538 26.2716 4.69123 27.0493 5.46897C27.8271 6.24671 28.2645 7.30123 28.2656 8.40112V24.7839C28.2643 25.8838 27.8268 26.9382 27.0491 27.7159C26.2714 28.4936 25.217 28.9311 24.1172 28.9324ZM4.14844 12.5496C3.60764 12.5496 3.089 12.7644 2.7066 13.1468C2.3242 13.5292 2.10938 14.0478 2.10938 14.5886V24.7839C2.10938 25.3247 2.3242 25.8434 2.7066 26.2258C3.089 26.6082 3.60764 26.823 4.14844 26.823H24.1172C24.658 26.823 25.1766 26.6082 25.559 26.2258C25.9414 25.8434 26.1562 25.3247 26.1562 24.7839V8.40112C26.1562 7.86033 25.9414 7.34169 25.559 6.95929C25.1766 6.57689 24.658 6.36206 24.1172 6.36206H17.3573C16.8165 6.36206 16.2979 6.57689 15.9155 6.95929C15.5331 7.34169 15.3183 7.86033 15.3183 8.40112C15.317 9.50096 14.8795 10.5554 14.1018 11.3331C13.3241 12.1108 12.2697 12.5483 11.1698 12.5496H4.14844Z" fill="#FA002C"/>
<path d="M4.57031 11.8828C4.29059 11.8828 4.02233 11.7717 3.82454 11.5739C3.62674 11.3761 3.51562 11.1078 3.51562 10.8281V1.05469C3.51562 0.774967 3.62674 0.506703 3.82454 0.308911C4.02233 0.111119 4.29059 0 4.57031 0H23.6953C23.975 0 24.2433 0.111119 24.4411 0.308911C24.6389 0.506703 24.75 0.774967 24.75 1.05469V4.64062C24.75 4.92035 24.6389 5.18861 24.4411 5.3864C24.2433 5.58419 23.975 5.69531 23.6953 5.69531C23.4156 5.69531 23.1473 5.58419 22.9495 5.3864C22.7517 5.18861 22.6406 4.92035 22.6406 4.64062V2.10938H5.625V10.8281C5.625 11.1078 5.51388 11.3761 5.31609 11.5739C5.1183 11.7717 4.85003 11.8828 4.57031 11.8828Z" fill="#FA002C"/>
</svg>
