<svg width="33" height="31" viewBox="0 0 33 31" fill="none" xmlns="http://www.w3.org/2000/svg">
<path fill-rule="evenodd" clip-rule="evenodd" d="M2.2057 12.4314H7.93987V29.1561H2.2057C1.67788 29.1561 1.25 28.5801 1.25 27.8696V13.7179C1.25 13.0074 1.67788 12.4314 2.2057 12.4314Z" stroke="#FA002C" stroke-width="2.5" stroke-linecap="round" stroke-linejoin="round"/>
<path d="M7.93966 13.6858L13.4583 2.99349C14.2735 1.41374 16.2151 0.794091 17.7948 1.60943C18.0899 1.76175 18.3597 1.95884 18.5946 2.19369C19.5355 3.13464 20.0641 4.41083 20.0641 5.74153V10.7589H28.846C29.5655 10.7589 30.2505 11.0679 30.7267 11.6074C31.2029 12.1468 31.4245 12.8648 31.3353 13.5788L29.4538 26.9585C29.2968 28.214 28.2296 29.1561 26.9644 29.1561H7.93966" stroke="#FA002C" stroke-width="2.5" stroke-linecap="round" stroke-linejoin="round"/>
</svg>
