<svg width="16" height="16" viewBox="0 0 16 16" fill="none" xmlns="http://www.w3.org/2000/svg">
<path d="M15.7143 12.4107C15.7143 12.6116 15.6771 12.8739 15.6027 13.1975C15.5283 13.5212 15.4501 13.776 15.3683 13.9621C15.2121 14.3341 14.7582 14.7284 14.0067 15.1451C13.3073 15.5246 12.6153 15.7143 11.9308 15.7143C11.7299 15.7143 11.5346 15.7013 11.3449 15.6752C11.1551 15.6492 10.9412 15.6027 10.7031 15.5357C10.465 15.4688 10.2883 15.4148 10.173 15.3739C10.0577 15.333 9.85119 15.2567 9.55357 15.1451C9.25595 15.0335 9.07366 14.9665 9.0067 14.9442C8.27753 14.6838 7.62649 14.375 7.05357 14.0179C6.10119 13.4301 5.11719 12.6283 4.10156 11.6127C3.08594 10.5971 2.28423 9.6131 1.69643 8.66071C1.33929 8.0878 1.03051 7.43676 0.770089 6.70759C0.747768 6.64062 0.680804 6.45833 0.569196 6.16071C0.457589 5.8631 0.381324 5.65662 0.340402 5.54129C0.299479 5.42597 0.245536 5.24926 0.178571 5.01116C0.111607 4.77307 0.0651042 4.55915 0.0390625 4.36942C0.0130208 4.17969 0 3.98438 0 3.78348C0 3.09896 0.189732 2.40699 0.569196 1.70759C0.985863 0.956101 1.38021 0.502232 1.75223 0.345982C1.93824 0.264137 2.19308 0.186012 2.51674 0.111607C2.8404 0.0372024 3.10268 0 3.30357 0C3.40774 0 3.48586 0.0111607 3.53795 0.0334821C3.67188 0.078125 3.86905 0.360863 4.12946 0.881696C4.21131 1.02307 4.32292 1.22396 4.46429 1.48438C4.60565 1.74479 4.73586 1.98103 4.85491 2.19308C4.97396 2.40513 5.08929 2.60417 5.20089 2.79018C5.22321 2.81994 5.28832 2.91295 5.39621 3.0692C5.50409 3.22545 5.58408 3.35751 5.63616 3.4654C5.68824 3.57329 5.71429 3.67932 5.71429 3.78348C5.71429 3.93229 5.60826 4.1183 5.39621 4.34152C5.18415 4.56473 4.9535 4.76935 4.70424 4.95536C4.45499 5.14137 4.22433 5.33854 4.01228 5.54688C3.80022 5.75521 3.6942 5.92634 3.6942 6.06027C3.6942 6.12723 3.7128 6.21094 3.75 6.31138C3.7872 6.41183 3.81882 6.4881 3.84487 6.54018C3.87091 6.59226 3.92299 6.68155 4.00112 6.80804C4.07924 6.93452 4.12202 7.00521 4.12946 7.02009C4.69494 8.03943 5.34226 8.91369 6.07143 9.64286C6.8006 10.372 7.67485 11.0193 8.6942 11.5848C8.70908 11.5923 8.77976 11.635 8.90625 11.7132C9.03274 11.7913 9.12202 11.8434 9.17411 11.8694C9.22619 11.8955 9.30246 11.9271 9.4029 11.9643C9.50335 12.0015 9.58705 12.0201 9.65402 12.0201C9.78795 12.0201 9.95908 11.9141 10.1674 11.702C10.3757 11.49 10.5729 11.2593 10.7589 11.01C10.9449 10.7608 11.1496 10.5301 11.3728 10.3181C11.596 10.106 11.782 10 11.9308 10C12.035 10 12.141 10.026 12.2489 10.0781C12.3568 10.1302 12.4888 10.2102 12.6451 10.3181C12.8013 10.426 12.8943 10.4911 12.9241 10.5134C13.1101 10.625 13.3092 10.7403 13.5212 10.8594C13.7333 10.9784 13.9695 11.1086 14.2299 11.25C14.4903 11.3914 14.6912 11.503 14.8326 11.5848C15.3534 11.8452 15.6362 12.0424 15.6808 12.1763C15.7031 12.2284 15.7143 12.3065 15.7143 12.4107Z" fill="white"/>
</svg>
